# xmcd
#
# Track frame offsets: 
#        150
#        17294
#        32298
#        50155
#        61663
#        81887
#        95231
#        107696
#        128174
#        141081
#        155716
#        166217
#        180971
#        193863
#        212462
#        225961
#
# Disc length: 3150 seconds
#
# Revision: 0
# Processed by: cddbd v1.5.2PL0 Copyright (c) Steve Scherf et al.
# Submitted via: ExactAudioCopy v0.95b4
#
DISCID=c50c4c10
DTITLE=Cody Shuler and Pine Mountain Railroad - Pickin - Praisin' and Singi
DTITLE=n'
DYEAR=2008
DGENRE=Bluegrass
TTITLE0=My Eyes Shall Be on Canaanan's Land
TTITLE1=I Bowed on My Knees and Cried Holy
TTITLE2=Blood Bought My Freedom
TTITLE3=When We All Get To Heaven
TTITLE4=Where The Soul Never Dies
TTITLE5=The Gospel Ship
TTITLE6=Run On
TTITLE7=Let's Meet By The River
TTITLE8=This World Is Not My Home
TTITLE9=How Beautiful Heaven Must Be
TTITLE10=So High
TTITLE11=The Old Rugged Cross
TTITLE12=Over In The Gloryland
TTITLE13=What Would You Give In Exchange 
TTITLE14=Rock Of Ages
TTITLE15=I'm Getting Ready To Leave This World
EXTD=
EXTT0=
EXTT1=
EXTT2=
EXTT3=
EXTT4=
EXTT5=
EXTT6=
EXTT7=
EXTT8=
EXTT9=
EXTT10=
EXTT11=
EXTT12=
EXTT13=
EXTT14=
EXTT15=
PLAYORDER=
